<svg xmlns="http://www.w3.org/2000/svg" xmlns:xlink="http://www.w3.org/1999/xlink" version="1.1" width="1028.35pt" height="1028.35pt" viewBox="0 0 1028.35 1028.35">
<defs>
<clipPath id="clip_0">
<path transform="matrix(1,0,0,-1,0,1028.35)" d="M0 1028.346H1028.346V0H0Z"/>
</clipPath>
</defs>
<g id="layer_1" data-name="">
<g clip-path="url(#clip_0)">
<path transform="matrix(1,0,0,-1,680.1143,603.5769)" d="M0 0C-5.995-5.017-13.396-9.678-21.099-8.357-29.214-6.97-34.713 .509-38.742 7.684-42.77 14.859-46.668 22.806-53.95 26.639L-54.468 27.857C-63.168 24.239-72.15 19.323-81.377 21.102-88.172 22.404-93.938 27.36-97.139 33.493-100.355 39.622-101.177 46.797-100.484 53.681-99.681 61.684-96.461 70.014-89.673 74.331-83.675 78.14-76.11 78.163-69.271 80.104-53.531 84.57-42.826 98.768-33.57 112.254 .381 161.708 30.928 213.495 57.791 267.134L57.726 267.531C57.42 275.551 48.844 280.411 45.005 287.456 40.867 295.039 42.745 304.783 47.557 311.97 52.373 319.143 59.65 324.232 66.906 328.923 71.826 332.088 77.159 335.259 82.999 335.194 90.673 335.12 97.351 329.298 100.734 322.418 102.904 318.012 103.987 313.214 104.662 308.33L105.47 308.443C114.299 307.157 123.143 313.304 131.836 311.324 138.149 309.892 142.868 304.323 145.069 298.246 147.28 292.165 147.411 285.558 147.504 279.084 147.635 270.862 147.394 261.653 141.552 255.856 136.637 250.974 129.07 249.984 122.158 250.357 115.246 250.73 108.313 252.208 101.465 251.216L100.492 251.792C69.709 199.938 38.918 148.112 8.135 96.258 1.434 84.986-5.482 71.708-.984 59.392 2.628 49.491 12.928 42.919 15.633 32.726 18.919 20.372 9.802 8.214 0 0" fill="#fdedd6"/>
<path transform="matrix(1,0,0,-1,736.9266,335.87489)" d="M0 0C-13.253-23.527-25.94-47.377-39.675-70.631-53.414-93.896-67.669-116.863-82.657-139.345-89.396-149.453-95.943-159.965-103.984-169.109-107.55-173.164-111.473-176.978-115.984-179.974-120.762-183.146-125.89-185.055-131.502-186.145-137.246-187.26-143.387-188.008-148.32-191.431-152.708-194.475-155.668-198.922-157.53-203.871-161.496-214.402-161.21-228.352-154.626-237.788-151.597-242.129-147.503-245.689-142.564-247.665-136.983-249.897-130.822-249.484-125.15-247.818-114.582-244.716-103.702-236.445-92.136-239.176-89.698-239.751-87.558-240.873-85.759-242.619-83.543-244.769-80.123-241.346-82.372-239.233-90.234-231.846-102.111-233.658-111.271-237.374-121.928-241.697-134.173-248.932-145.041-241.15-154.573-234.326-156.58-220.622-154.124-209.877-153.003-204.972-150.736-200.092-146.798-196.824-142.238-193.039-136.052-192.37-130.441-191.297-119.527-189.209-110.487-183.607-102.835-175.642-94.802-167.281-88.457-157.377-82-147.8-67.19-125.832-52.947-103.448-39.659-80.523-26.404-57.655-13.056-34.5-2.173-10.388-.785-7.312 .591-4.23 1.957-1.143 2.532 .158 .733 1.301 0 0" fill="#482825"/>
<path transform="matrix(1,0,0,-1,625.3318,578.3596)" d="M0 0C8.783-6.232 11.88-16.555 17.997-24.914 20.929-28.921 24.485-32.606 29.113-34.601 34.223-36.804 39.804-36.492 44.885-34.383 49.975-32.271 54.452-28.857 58.519-25.185 62.682-21.424 66.493-17.101 69.302-12.226 71.957-7.617 73.76-2.321 73.561 3.052 73.37 8.231 71.346 12.977 68.429 17.194 65.685 21.162 62.349 24.679 59.602 28.642 56.445 33.196 54.637 38.116 54.884 43.718 55.429 56.069 63.597 67.299 69.686 77.553 83.529 100.861 97.374 124.167 111.208 147.48 126.719 173.619 142.229 199.758 157.74 225.897 159.359 228.625 155.111 231.1 153.493 228.379 126.352 182.714 99.21 137.05 72.084 91.375 68.729 85.725 65.373 80.074 62.018 74.424 58.867 69.118 55.752 63.796 53.386 58.082 49.121 47.782 48.32 36.751 54.63 27.118 59.87 19.119 68.871 12.211 68.625 1.787 68.374-8.89 59.837-18.071 51.994-24.381 47.321-28.141 41.319-31.961 35.038-31.419 29.514-30.942 25.129-26.835 21.983-22.584 15.525-13.857 12.148-1.382 1.27 3.012-.576 3.757-1.41 1 0 0" fill="#482825"/>
<path transform="matrix(1,0,0,-1,781.5728,353.6634)" d="M0 0C2.648-.095 5.296-.014 7.937-.272 10.87-.559 13.784-1.012 16.711-1.348 21.201-1.862 25.717-2.018 30.189-1.248 38.893 .251 45.387 6.15 47.411 14.787 48.369 18.875 48.535 23.123 48.516 27.306 48.494 32.131 48.415 36.986 47.714 41.768 46.462 50.303 42.259 59.212 33.903 62.797 23.806 67.13 14.19 59.702 4.011 60.981 .895 61.372 .924 56.476 4.011 56.088 12.303 55.047 19.893 60.015 28.093 59.303 36.085 58.61 40.784 50.862 42.395 43.756 43.422 39.223 43.515 34.547 43.592 29.919 43.655 26.127 43.722 22.28 43.16 18.519 42.633 14.983 41.569 11.299 39.271 8.487 36.851 5.528 33.292 3.943 29.628 3.161 25.104 2.195 20.483 2.567 15.913 2.915 10.63 3.318 4.811 4.136-.346 2.554-1.755 2.122-1.476 .053 0 0" fill="#482825"/>
<path transform="matrix(1,0,0,-1,787.5011,303.52857)" d="M0 0C.313 5.328-.602 11.132-1.935 16.284-3.155 20.995-5.168 25.416-8.282 29.176-14.536 36.728-23.963 39.456-33.095 35.674-37.799 33.725-42.086 30.8-46.235 27.884-50.385 24.969-54.466 21.829-57.9 18.078-64.377 11.001-68.586 1.24-66.41-8.443-65.289-13.433-62.176-17.328-58.834-21.044-55.884-24.323-52.275-27.847-51.982-32.515-51.797-35.477-47.165-35.5-47.347-32.515-47.84-24.443-54.473-19.846-58.859-13.798-64.14-6.515-62.81 2.927-58.182 10.202-53.237 17.976-45.143 23.164-37.477 27.931-33.535 30.383-29.16 32.814-24.38 32.757-20.36 32.708-16.616 30.773-13.736 28.052-10.189 24.7-7.99 20.375-6.604 15.74-5.013 10.418-4.915 4.866-3.616-.489-3.109-2.584-.118-2.007 0 0" fill="#482825"/>
<path transform="matrix(1,0,0,-1,262.9808,916.2447)" d="M0 0C-8.423 0-15.277 6.853-15.277 15.277V390.211C-15.277 398.635-8.423 405.488 0 405.488H508.971C517.396 405.488 524.249 398.635 524.249 390.211V15.277C524.249 6.853 517.396 0 508.971 0Z" fill="#ac6a3f"/>
<path transform="matrix(1,0,0,-1,771.9526,501.90516)" d="M0 0H-508.972C-522.298 0-533.101-10.803-533.101-24.129V-399.062C-533.101-412.389-522.298-423.191-508.972-423.191H0C13.326-423.191 24.129-412.389 24.129-399.062V-24.129C24.129-10.803 13.326 0 0 0M0-17.704C3.543-17.704 6.425-20.586 6.425-24.129V-399.062C6.425-402.605 3.543-405.487 0-405.487H-508.972C-512.515-405.487-515.397-402.605-515.397-399.062V-24.129C-515.397-20.586-512.515-17.704-508.972-17.704Z" fill="#8c522b"/>
<path transform="matrix(1,0,0,-1,662.0154,319.83546)" d="M0 0C2.859 35.275 30.927 57.503 40.834 89.737 48.175 123.228-6.462 144.876-27.844 165.024-73.905 220.924-196.691 209.277-250.524 161.854-266.377 166.445-287.839 127.702-299.811 117.284-328.479 102.667-347.27 51.752-316.799 31.607-284.919 16.823-280.494-49.954-244.741-23.828-240.728-32.47-228.328-36.223-230.076-47.533-237.517-81.662-285.348-109.007-264.164-147.744-300.251-157.809-307.078-222.843-266.208-212.05-258.063-219.685-245.364-219.781-237.17-212.418-231.75-223.194-217.806-217.267-209.57-213.391-196.118-208.284-177.084-200.393-181.282-182.597H-93.496C-97.025-200.781-74.734-206.045-61.935-211.506-53.672-214.927-42.273-221.499-36.394-210.916-28.246-218.419-14.463-211.141-7.596-204.751 24.852-223.925 32.38-164.453 3.761-149.326 22.417-104.991-36.397-80.319-42.023-40.826-43.15-38.139-43.629-35.25-43.098-32.099-42.33-27.538-39.7-23.489-37.282-19.621-36.101-16.435-34.504-14.181-32.616-12.579-31.643-11.376-30.565-10.266-29.307-9.327-25.978-6.839-22.09-6.768-18.456-8.225-11.337-7.586-4.147-7.152 0 0" fill="#f1c885"/>
<path transform="matrix(1,0,0,-1,617.7467,443.55696)" d="M0 0C-17.413-33.036-39.271-6.021-48.956-66.989-38.161-50.02-133.106-62.49-136.473-58.87-142.272-37.264-164.298-27.856-179.616-18.612-177.867-10.645-186.453-.594-174.962 5.718-165.576 13.158-140.259 2.333-141.853 20.765-172.87 81.811-86.062 32.285-58.445 51.918-46.599 56.487-27.879 59.397-22.825 44.132-19.638 36.112-30.825 25.078-22.523 19.103-8.634 18.919 2.475 17.544 0 0" fill="#fdedd6"/>
<path transform="matrix(1,0,0,-1,558.1303,336.4682)" d="M0 0C-11.055-6.52-26.37 4.236-31.43 14.497-35.205 26.448-49.357-19.766-68.989-6.304-60.155 7.777-49.374 24.029-54.875 42.318-36.487 35.959-38.994 19.658-20.906 45.886-18.841 29.027 2.94 15.716 0 0" fill="#fdedd6"/>
<path transform="matrix(1,0,0,-1,565.8196,344.8299)" d="M0 0C-9.121 9.184-37.868 .301-40.668 24.572-47.482 12.253-58.06-.902-74.892-1.296-87.246-85.555 22.125-88.259 0 0" fill="#f8a78b"/>
<path transform="matrix(1,0,0,-1,567.5126,337.4748)" d="M0 0C-21.869-8.545-46.689 10.897-43.432 34.201-45.067 33.755-46.842 34.023-48.457 34.422-41.562 14.969-55.898-7.409-76.446-9.328-78.442-9.551-78.538-12.427-76.445-12.522-64.05-13.113-51.879-9.28-41.96-1.933-29.485-12.475-11.372-12.794 1.549-2.667 2.811-1.677 1.453 .527 0 0" fill="#482825"/>
<path transform="matrix(1,0,0,-1,411.1634,154.74897)" d="M0 0C-5.975 4.033-13.248 1.445-18.308-2.872-24.356-8.034-26.595-16.029-29.729-23.029-36.059-37.164-48.716-46.229-60.442-55.646-71.773-64.745-83.618-76.19-86.561-91.053-89.595-106.379-81.352-120.439-71.174-131.204-60.803-142.172-47.5-150.691-39.826-164.013-35.606-171.339-34.058-179.827-29.973-187.217-26.554-193.402-20.896-199.231-13.643-200.408 2.161-202.974 13.663-185.773 19.259-173.399 25.698-159.16 27.907-143.181 25.343-127.752 19.857-94.752-8.321-65.05 .89-30.092 1.885-26.315 3.391-22.748 5.398-19.399 6.644-17.318 3.499-15.533 2.174-17.514-6.308-30.193-6.737-46.156-3.371-60.611 .424-76.905 8.716-91.576 14.742-107.061 20.495-121.843 23.705-137.282 20.525-153.068 19.074-160.269 16.594-167.248 13.077-173.7 9.645-179.997 5.364-186.456-.457-190.796-6.095-194.998-12.93-196.274-18.788-191.738-24.665-187.187-27.166-179.822-29.628-173.114-32.289-165.865-35.548-159.292-40.48-153.307-45.157-147.632-50.716-142.763-56.236-137.935-66.73-128.756-78.997-118.437-82.184-104.153-85.476-89.394-76.436-76.25-66.2-66.6-55.873-56.865-43.407-49.477-34.166-38.58-29.298-32.84-26.174-26.503-23.325-19.591-20.617-13.019-17.312-5.824-10.182-3.147-7.328-2.076-4.137-1.919-1.28-3.036 .563-3.756 1.47-.992 0 0" fill="#482825"/>
<path transform="matrix(1,0,0,-1,415.604,344.8775)" d="M0 0C.322-3.074 2.201-6.216 3.956-8.698 5.903-11.45 8.115-13.966 10.564-16.28 15.415-20.865 20.871-24.771 26.291-28.645 31.702-32.513 37.069-36.475 41.739-41.238 44.102-43.648 46.269-46.242 48.054-49.113 49.864-52.024 50.84-55.1 52.147-58.228 52.899-60.032 56.219-60.115 55.965-57.712 55.291-51.334 51.021-45.235 46.916-40.536 42.439-35.412 37.062-31.15 31.593-27.139 26-23.036 20.235-19.15 15.062-14.509 12.54-12.247 10.119-9.814 7.974-7.189 5.883-4.63 4.376-1.54 2.198 .91 1.495 1.701-.117 1.111 0 0" fill="#482825"/>
<path transform="matrix(1,0,0,-1,463.3152,377.05348)" d="M0 0C5.836-8.261 15.118-14.213 25.008-16.319 27.38-16.824 28.398-13.208 26.014-12.669 16.578-10.536 8.46-5.623 1.901 1.466 .985 2.457-.803 1.137 0 0" fill="#482825"/>
<path transform="matrix(1,0,0,-1,461.4311,327.2674)" d="M0 0C1.231-5.718 5.541-10.638 10.104-14.102 15.394-18.12 21.758-20.436 28.37-20.953 42.014-22.019 55.615-15.999 60.67-2.667 63.629 5.137 63.635 13.717 62.422 21.852 61.978 24.836 57.765 23.766 57.516 21.188 56.76 13.354 57.361 5.173 54.109-2.194 51.21-8.762 45.567-13.299 38.771-15.417 31.323-17.738 23.29-16.899 16.43-13.168 10.239-9.801 6.342-4.55 2.188 .923 1.391 1.974-.302 1.401 0 0" fill="#482825"/>
<path transform="matrix(1,0,0,-1,497.7709,234.61017)" d="M0 0C2.541 .909 5.388 1.467 8.025 2.069 10.651 2.667 13.318 3.15 16 3.399 21.456 3.906 26.94 3.587 32.293 2.428 34.767 1.892 35.822 5.698 33.341 6.226 27.55 7.46 21.6 7.853 15.705 7.253 12.774 6.955 9.869 6.471 7.035 5.663 4.159 4.843 1.706 3.567-.952 2.259-2.196 1.647-1.324-.473 0 0" fill="#482825"/>
<path transform="matrix(1,0,0,-1,606.0627,139.51746)" d="M0 0C5.788 3.584 13.273 .973 17.784-3.467 23.058-8.659 26.147-15.609 30.799-21.311 39.89-32.457 53.334-38.6 65.716-45.266 77.341-51.525 89.72-59.323 95.292-71.868 101.841-86.615 94.066-101.834 85.363-113.779 76.533-125.898 65.561-136.889 60.943-151.519 58.487-159.296 58.47-167.693 55.528-175.33 53.256-181.23 48.595-186.985 41.779-187.099 34.651-187.217 28.194-182.305 23.281-177.638 18.134-172.749 13.722-167.136 10.19-160.978 2.722-147.955-.249-133.143 1.077-118.226 2.623-100.848 8.715-84.299 11.265-67.089 13.453-52.322 13.135-36.169 5.29-22.973 3.533-20.017 1.418-17.287-.98-14.825-2.672-13.088-5.197-15.676-3.62-17.465 7.077-29.601 9.156-46.674 7.48-62.189 5.531-80.235-.948-97.444-3.042-115.474-4.875-131.26-2.48-146.936 4.572-161.226 7.908-167.986 12.253-174.298 17.437-179.775 22.638-185.27 29.006-190.62 36.531-192.424 43.805-194.168 51.146-191.846 55.951-186.078 61.135-179.855 62.781-172.108 64.055-164.31 64.768-159.949 65.501-155.592 66.957-151.406 68.22-147.774 69.984-144.339 71.952-141.042 75.967-134.315 80.933-128.224 85.685-122.016 95.301-109.452 104.487-94.194 101.598-77.694 99.127-63.583 87.535-53.202 76.001-45.896 63.514-37.987 49.109-32.851 38.245-22.531 32.466-17.041 29.036-9.979 24.175-3.772 19.913 1.671 13.752 6.18 6.543 6.131 3.212 6.109 .366 4.944-2.013 2.608-3.344 1.301-1.623-1.005 0 0" fill="#482825"/>
<path transform="matrix(1,0,0,-1,631.8587,324.1922)" d="M0 0C-1.651-2.721-2.56-5.963-4.093-8.785-5.659-11.669-7.51-14.432-9.5-17.04-13.66-22.496-18.564-27.333-23.28-32.297-27.945-37.208-32.466-42.363-36.029-48.146-39.295-53.445-42.725-60.555-42.232-66.964-42.074-69.02-38.909-69.758-38.413-67.481-37.7-64.214-37.331-60.999-36.146-57.838-34.959-54.673-33.288-51.693-31.427-48.878-27.632-43.138-22.887-38.13-18.123-33.197-13.494-28.403-8.886-23.563-4.948-18.171-3.006-15.511-1.304-12.706 .054-9.701 1.272-7.005 2.635-3.655 2.399-.65 2.302 .588 .695 1.146 0 0" fill="#482825"/>
<path transform="matrix(1,0,0,-1,590.964,363.8783)" d="M0 0C-2.532-4.007-5.606-7.745-9.185-10.86-12.777-13.987-16.861-16.397-21.233-18.266-23.181-19.099-21.761-22.545-19.775-21.725-10.399-17.856-2.179-10.48 2.09-1.221 2.734 .174 .847 1.34 0 0" fill="#482825"/>
<path transform="matrix(1,0,0,-1,583.7493,314.88899)" d="M0 0C-2.492-4.925-4.683-9.796-8.548-13.866-12.445-17.969-17.398-20.872-22.869-22.31-34.056-25.25-46.248-20.652-51.915-10.492-55.414-4.219-56.271 3.096-58.225 9.914-58.985 12.566-63.227 12.129-63.131 9.25-62.667-4.599-57.746-19.986-43.857-25.61-31.845-30.474-16.904-27.242-7.392-18.653-2.39-14.137 2.025-7.512 2.232-.604 2.266 .553 .54 1.066 0 0" fill="#482825"/>
<path transform="matrix(1,0,0,-1,555.5182,273.2301)" d="M0 0C-1.351-6.938-5.883-13.085-11.783-16.974-15.161-19.198-19.066-20.813-21.671-23.895-23.467-26.021-24.505-28.691-26.169-30.932-27.834-33.156-30.536-35.035-33.239-34.409L-37.903-34.706C-39.139-34.26-40.309-33.486-41.265-32.596-43.308-30.701-44.808-28.262-46.95-26.499-50.081-23.945-54.201-23.055-57.925-21.472-64.451-18.72-70.022-13.513-72.592-6.921-75.179-.329-74.504 7.581-70.351 13.316-66.923 18.029-61.485 20.962-55.832 22.412-50.443 23.797-45.434 24.159-39.913 24.159-33.7 25.032-26.153 26.12-21.802 25.807-15.985 25.412-10.102 23.5-5.883 19.496-.758 14.617 1.335 6.955 0 0" fill="#482825"/>
<path transform="matrix(1,0,0,-1,414.1318,155.26245)" d="M0 0C2.642 2.084 5.697 3.827 8.449 5.79 11.131 7.703 13.904 9.495 16.714 11.216 22.186 14.571 27.941 17.482 33.881 19.916 45.939 24.857 58.781 27.767 71.796 28.425 74.484 28.561 74.5 32.759 71.796 32.622 58.175 31.934 44.732 28.931 32.134 23.703 25.866 21.101 19.837 17.959 14.117 14.306 11.298 12.506 8.584 10.532 5.969 8.446 3.25 6.277 1.112 3.751-1.293 1.293-2.138 .429-.901-.71 0 0" fill="#482825"/>
<path transform="matrix(1,0,0,-1,603.1667,134.7732)" d="M0 0C-5.06 5.882-12.975 9.562-20.025 12.503-27.343 15.556-35.032 17.617-42.889 18.674-51.153 19.785-59.305 19.545-67.573 18.632-76.038 17.697-85.052 16.527-93.209 19.716-101.431 22.93-106.22 30.723-106.761 39.351-106.916 41.816-110.448 41.823-110.598 39.351-111.049 31.916-107.338 24.42-101.6 19.747-95.217 14.549-86.779 13.167-78.758 13.41-69.6 13.686-60.614 15.529-51.417 15.163-43.096 14.832-34.853 13.259-26.969 10.581-22.562 9.084-18.308 7.221-14.188 5.06-9.905 2.814-5.994-.033-1.638-2.123-.246-2.791 1.021-1.187 0 0" fill="#482825"/>
<path transform="matrix(1,0,0,-1,497.7016,116.12866)" d="M0 0C-9.42 6.968-14.952 17.883-16.219 29.378-16.509 32.013-20.454 32.161-20.441 29.378-20.384 16.384-12.458 4.054-1.377-2.357 .18-3.258 1.38-1.021 0 0" fill="#482825"/>
<path transform="matrix(1,0,0,-1,490.1037,117.505558)" d="M0 0C-6.945 .38-13.913 2.698-19.683 6.577-21.929 8.087-24.042 4.447-21.801 2.953-15.319-1.371-7.784-3.499 0-3.064 1.97-2.954 1.974-.108 0 0" fill="#482825"/>
<path transform="matrix(1,0,0,-1,439.6559,466.06336)" d="M0 0C-2.767 5.016-6.674 9.182-11.535 12.221-13.902 13.701-16.452 14.903-19.082 15.834-21.668 16.749-24.91 17.746-27.676 17.459-29.967 17.22-30.636 14.055-28.237 13.311-25.834 12.566-23.289 12.366-20.874 11.585-18.452 10.803-16.149 9.77-13.958 8.472-9.641 5.914-5.655 2.488-2.668-1.559-1.512-3.126 .984-1.783 0 0" fill="#482825"/>
<path transform="matrix(1,0,0,-1,418.3437,468.17219)" d="M0 0C-4.046 1.173-7.849 1.888-12.097 1.74-16.201 1.596-20.347 .773-24.227-.562-31.952-3.22-38.813-8.028-43.919-14.413-53.512-26.409-57.848-46.191-47.96-59.353-42.698-66.357-33.137-70.029-24.951-66.01-22.76-64.934-24.293-61.369-26.607-62.081-32.67-63.945-39.407-61.489-43.33-56.599-47.752-51.087-48.743-43.572-48.014-36.739-46.544-22.943-37.569-10.472-24.745-5.09-17.399-2.007-8.515-.988-.643-2.334 .865-2.592 1.525-.442 0 0" fill="#482825"/>
<path transform="matrix(1,0,0,-1,399.2339,508.9248)" d="M0 0C-2.717-1.949-4.731-4.17-5.88-7.367-7.007-10.501-7.165-13.876-6.498-17.128-5.128-23.806 .436-28.931 6.998-30.42 10.786-31.28 14.716-31.09 18.193-29.287 20.605-28.037 18.935-24.201 16.358-24.934 10.439-26.618 3.53-25.248 .026-19.765-1.704-17.058-2.211-13.936-1.906-10.768-1.623-7.84-.386-4.275 1.56-2.022 2.449-.993 1.265 .908 0 0" fill="#482825"/>
<path transform="matrix(1,0,0,-1,425.9982,514.82608)" d="M0 0C-1.942-1.881-3.578-3.818-4.515-6.387-5.453-8.961-5.443-11.89-4.854-14.544-3.623-20.096 .775-24.293 6.14-25.903 8.787-26.697 11.54-26.9 14.249-26.328 17.376-25.668 20.064-23.843 22.808-22.306 28.828-18.932 35.849-18.306 42.163-15.68 48.021-13.244 53.202-7.877 53.423-1.305 53.488 .653 50.296 .65 50.384-1.305 50.737-9.097 42.439-11.905 36.223-13.129 32.907-13.782 29.541-14.099 26.262-14.953 22.861-15.839 20.001-17.589 16.96-19.277 12.058-21.998 6.319-21.815 2.337-17.532-1.218-13.709-1.508-5.953 1.93-1.93 3.059-.609 1.279 1.239 0 0" fill="#482825"/>
<path transform="matrix(1,0,0,-1,481.5125,508.7641)" d="M0 0C.121 2.792 .545 5.395 .208 8.204-.102 10.801-.671 13.369-1.545 15.835-3.348 20.927-6.071 25.567-9.608 29.651-16.205 37.269-26.084 43.088-36.24 43.849-38.886 44.048-39.368 39.922-36.859 39.272-27.881 36.946-19.8 33.244-13.558 26.165-10.475 22.669-8.043 18.496-6.374 14.148-5.551 12.006-4.876 9.818-4.323 7.591-3.722 5.169-2.888 2.498-2.832 0-2.792-1.827-.079-1.819 0 0" fill="#482825"/>
<path transform="matrix(1,0,0,-1,426.1725,374.48109)" d="M0 0C-4.833-11.824-12.536-22.332-19.764-32.755-26.889-43.028-33.782-54.033-36.157-66.496-37.417-73.101-37.86-80.85-34.905-87.086-33.994-89.008-30.524-88.138-30.778-85.969-31.225-82.171-31.91-78.535-31.817-74.684-31.724-70.824-31.071-67.029-30.02-63.316-27.851-55.646-23.966-48.634-19.677-41.964-15.362-35.256-10.632-28.822-6.405-22.056-2.202-15.331 1.08-8.543 2.756-.76 3.152 1.079 .683 1.672 0 0" fill="#482825"/>
<path transform="matrix(1,0,0,-1,421.4096,370.45326)" d="M0 0C-.744-2.058-1.851-4.081-2.93-5.982-3.996-7.861-5.195-9.695-6.475-11.436-9.01-14.883-12.245-17.851-15.788-20.236-17.79-21.585-15.955-24.818-13.877-23.505-9.766-20.906-6.302-17.521-3.451-13.588-2.055-11.661-.948-9.629-.03-7.435 .918-5.17 1.425-2.918 1.887-.521 2.126 .72 .43 1.187 0 0" fill="#482825"/>
<path transform="matrix(1,0,0,-1,487.6589,349.42317)" d="M0 0C.653-6.281 1.711-12.53 2.443-18.809 3.138-24.779 3.771-30.772 5.345-36.589 8.187-47.094 13.947-56.794 24.469-60.922 34.614-64.902 46.79-63.277 56.792-59.651 67.261-55.855 76.99-48.663 80.655-37.749 82.975-30.841 82.331-23.374 81.954-16.227 81.543-8.433 81.21-.625 80.465 7.146 80.267 9.217 77.155 9.307 77.17 7.146 77.215 .694 77.559-5.754 77.881-12.197 78.18-18.159 78.795-24.228 78.228-30.189 77.162-41.391 69.464-49.633 59.555-54.23 50.206-58.567 38.68-60.81 28.681-57.521 19.102-54.372 13.505-45.688 10.782-36.417 9.069-30.583 8.321-24.513 7.482-18.508 6.574-12.005 5.676-5.098 2.087 .565 1.542 1.426-.122 1.176 0 0" fill="#482825"/>
<path transform="matrix(1,0,0,-1,523.4645,330.33857)" d="M0 0C.796-5.444 1.922-10.839 2.623-16.298 3.314-21.686 3.615-27.117 3.648-32.547 3.663-34.999 7.474-35.004 7.459-32.547 7.39-21.429 6.148-9.556 1.765 .744 1.299 1.84-.143 .976 0 0" fill="#482825"/>
<path transform="matrix(1,0,0,-1,471.1255,235.98047)" d="M0 0C1.984-19.208-23.455-21.533-24.983-2.282-26.968 16.924-1.528 19.25 0 0" fill="#482825"/>
<path transform="matrix(1,0,0,-1,587.295,225.20679)" d="M0 0C1.984-19.208-23.455-21.533-24.983-2.282-26.968 16.924-1.528 19.25 0 0" fill="#482825"/>
<path transform="matrix(1,0,0,-1,439.9949,214.69129)" d="M0 0C1.004 .201 1.795 .777 2.588 1.398 3.367 2.009 4.004 2.477 4.804 3.115 5.984 4.053 7.51 5.1 8.981 5.953 9.742 6.395 10.519 6.809 11.309 7.194 11.704 7.388 12.101 7.578 12.5 7.764 12.722 7.867 12.945 7.967 13.169 8.066 13.262 8.107 13.582 8.241 13.31 8.129 14.166 8.483 15.038 8.8 15.92 9.085 16.939 9.414 18.008 9.621 18.963 10.114 21.414 11.379 20.282 15.431 17.553 15.32 15.394 15.232 13.104 14.098 11.155 13.241 9.408 12.474 7.744 11.554 6.156 10.497 4.476 9.38 2.837 8.141 1.356 6.769-.145 5.377-1.791 3.614-1.972 1.502-2.065 .423-.908-.182 0 0" fill="#482825"/>
<path transform="matrix(1,0,0,-1,585.8996,200.54175)" d="M0 0C.331 2.067-1.602 3.265-3.193 4.12-4.761 4.963-6.372 5.687-8.065 6.242-9.575 6.737-11.114 7.144-12.671 7.459-14.44 7.817-16.362 8.17-18.174 8.14-19.62 8.115-20.827 7.056-21.019 5.628-21.192 4.338-20.369 2.673-18.944 2.45-17.999 2.301-17.047 2.236-16.097 2.13-15.925 2.11-15.665 2.075-15.987 2.119-15.79 2.092-15.594 2.063-15.398 2.032-15.005 1.971-14.612 1.907-14.22 1.84-12.603 1.567-11.002 1.197-9.429 .732-7.914 .285-6.387-.155-4.898-.684-4.08-.973-3.213-1.309-2.338-1.328-1.527-1.347-.159-.996 0 0" fill="#482825"/>
<path transform="matrix(1,0,0,-1,624.5628,461.7428)" d="M0 0C2.352 .868 4.814 1.408 7.286 1.817 8.444 2.009 9.614 2.115 10.784 2.2 12.101 2.295 13.445 2.198 14.73 2.543 16.42 2.996 16.293 5.334 14.73 5.845 13.389 6.284 11.905 6.138 10.516 6.037 9.143 5.937 7.771 5.723 6.422 5.452 3.772 4.92 1.268 3.932-1.18 2.8-2.741 2.079-1.632-.602 0 0" fill="#482825"/>
<path transform="matrix(1,0,0,-1,631.5563,466.4903)" d="M0 0C14.06 2.405 29.546-2.422 38.638-13.588 46.822-23.639 51.231-40.051 44.291-51.898 40.614-58.174 33.138-61.953 25.964-59.747 23.674-59.042 22.094-62.589 24.307-63.676 31.402-67.16 39.794-64.885 45.258-59.433 51.136-53.569 53.204-44.697 52.754-36.623 51.852-20.455 41.428-5.684 26.535 .63 22.35 2.405 17.947 3.499 13.424 3.94 8.522 4.419 4.036 3.69-.643 2.334-2.165 1.893-1.511-.259 0 0" fill="#482825"/>
<path transform="matrix(1,0,0,-1,648.4632,506.93116)" d="M0 0C1.946-2.253 3.184-5.817 3.465-8.746 3.77-11.915 3.264-15.035 1.533-17.743-1.971-23.226-8.879-24.597-14.798-22.912-17.348-22.186-19.07-26.002-16.634-27.265-10.546-30.421-2.9-28.767 2.282-24.589 7.568-20.328 9.614-13.019 7.819-6.54 7.335-4.793 6.609-3.142 5.527-1.683 4.395-.158 3.094 .922 1.56 2.022 .305 2.922-.898 1.04 0 0" fill="#482825"/>
<path transform="matrix(1,0,0,-1,621.3287,512.7403)" d="M0 0C3.438-4.023 3.148-11.779-.406-15.602-4.388-19.885-10.128-20.067-15.029-17.347-18.073-15.658-20.926-13.905-24.331-13.023-27.613-12.173-30.976-11.852-34.293-11.199-40.508-9.976-48.806-7.17-48.454 .625-48.366 2.577-51.559 2.586-51.493 .625-51.292-5.352-47.359-9.447-42.575-12.516-36.913-16.15-29.547-16.487-23.413-19.111-20.378-20.409-17.732-22.435-14.659-23.661-11.992-24.725-9.22-24.953-6.398-24.482-.897-23.566 4.003-20.056 6.089-14.817 7.212-11.998 7.488-8.817 6.857-5.846 6.184-2.677 4.197-.266 1.93 1.93 .652 3.168-1.13 1.322 0 0" fill="#482825"/>
<path transform="matrix(1,0,0,-1,570.5767,504.74806)" d="M0 0C.053 2.401 .848 4.928 1.41 7.258 1.976 9.599 2.68 11.899 3.541 14.148 5.205 18.495 7.645 22.672 10.725 26.165 16.967 33.243 25.049 36.946 34.027 39.272 36.51 39.915 36.08 44.049 33.408 43.849 23.241 43.087 13.387 37.264 6.776 29.651 3.311 25.661 .632 21.124-1.173 16.159-2.107 13.589-2.713 10.916-3.041 8.204-3.382 5.389-2.953 2.798-2.832 0-2.754-1.816-.041-1.831 0 0" fill="#482825"/>
<path transform="matrix(1,0,0,-1,625.3707,388.23286)" d="M0 0C2.269-2.193 4.207-4.699 6.377-6.991 8.463-9.195 10.606-11.344 12.685-13.556 16.928-18.073 21.108-22.61 24.861-27.551 32.138-37.129 37.809-47.913 39.835-59.871 40.933-66.346 40.898-73.347 39.468-79.764 38.864-82.478 42.814-83.584 43.64-80.914 51.487-55.532 36.049-30.522 18.929-12.969 16.3-10.273 13.534-7.726 10.732-5.211 7.913-2.68 4.75-.584 1.93 1.93 .627 3.092-1.273 1.231 0 0" fill="#482825"/>
<path transform="matrix(1,0,0,-1,781.4377,492.4134)" d="M0 0C-8.724 4.829-18.077 7.416-27.624 3.828-37.607 .077-44.906-8.816-54.714-13.004-62.215-16.208-70.846-16.505-77.904-20.593-88.768-26.885-93.153-41.557-89.312-53.51-85.472-65.464-74.693-74.397-62.688-78.071-54.658-80.528-45.935-80.956-38.498-84.857-30.606-88.997-25.03-96.614-17.302-101.054-8.995-105.828 1.572-106.442 10.376-102.664 19.18-98.886 26.015-90.804 28.279-81.495 30.657-71.715 28.158-61.409 24.623-51.986 21.087-42.563 16.486-33.46 14.445-23.605 13.428-18.693 13.043-13.588 11.071-8.976 9.098-4.364 4.435-1.887 0 0" fill="#f1c885"/>
<path transform="matrix(1,0,0,-1,711.2847,435.65589)" d="M0 0C-4.932-2.416-8.742-6.765-11.241-11.655-13.74-16.546-15.02-21.972-15.824-27.405-16.969-35.143-17.139-43.307-14.087-50.51-11.035-57.713-4.129-63.705 3.694-63.723 11.568-63.742 18.529-57.71 21.608-50.462 24.686-43.215 24.53-35.004 23.445-27.205 22.608-21.192 21.199-15.121 17.98-9.973 14.761-4.825 10.969 1.31 0 0" fill="#f1c885"/>
<path transform="matrix(1,0,0,-1,795.8897,413.88899)" d="M0 0C-7.363 7.426-18.766 5.913-25.775 1.759-32.785-2.396-37.774-9.285-41.512-16.525-44.347-22.015-46.594-27.864-47.517-33.973-48.44-40.082-47.991-46.477-45.617-52.181-44.049-55.951-41.522-59.494-37.887-61.353-32.097-64.314-24.983-62.377-19.267-59.277-8.088-53.215 .647-42.783 4.651-30.713 6.366-25.543 7.24-20.031 6.618-14.62 5.995-9.208 3.805-3.898 0 0" fill="#f1c885"/>
<path transform="matrix(1,0,0,-1,870.6392,512.34909)" d="M0 0C1.189-5.362 .167-11.052-2.096-16.057-4.359-21.061-7.801-25.446-11.545-29.464-16.879-35.186-23.153-40.413-30.687-42.521-38.22-44.63-47.211-42.97-52.106-36.868-57.033-30.726-56.661-21.522-52.918-14.595-49.175-7.668-42.66-2.667-35.888 1.35-30.666 4.448-25.043 7.134-19.011 7.83-12.98 8.526-5.819 9.389 0 0" fill="#f1c885"/>
<path transform="matrix(1,0,0,-1,834.868,432.6482)" d="M0 0C10.397-1.122 16.329-10.976 17.455-19.047 18.581-27.117 16.31-35.314 12.984-42.752 10.462-48.393 7.292-53.798 3.094-58.331-1.105-62.863-6.383-66.502-12.321-68.206-16.246-69.332-20.592-69.567-24.313-67.886-30.239-65.209-33.164-58.44-34.307-52.039-36.543-39.52-33.84-26.186-26.904-15.526-23.933-10.96-20.172-6.839-15.554-3.949-10.937-1.059-5.42 .542 0 0" fill="#f1c885"/>
<path transform="matrix(1,0,0,-1,782.1785,491.146)" d="M0 0C-5.377 3.819-11.892 6.292-18.539 6.472-24.999 6.647-31.052 4.422-36.468 1.035-41.651-2.205-46.302-6.23-51.546-9.37-57.059-12.67-63.135-13.93-69.283-15.518-75.038-17.004-80.596-19.142-84.952-23.319-88.692-26.904-91.327-31.605-92.751-36.565-95.836-47.312-93.012-58.424-86.046-67.012-78.512-76.302-67.712-80.895-56.277-83.268-49.705-84.631-43.133-85.873-37.46-89.676-32.35-93.102-28.358-98.005-23.551-101.826-13.739-109.623-.104-111.313 11.34-106.246 22.167-101.452 29.725-90.758 31.079-79.073 32.707-65.035 26.134-51.86 21.043-39.23 18.432-32.751 16.443-26.269 15.217-19.39 14.109-13.168 12.658-7.13 7.298-3.226 5.026-1.571 2.36-.465-.227 .595-2.235 1.417-3.708-2.035-1.716-2.935 .627-3.993 2.927-5.156 4.9-6.828 7.231-8.804 8.327-11.148 9.113-14.067 10.749-20.144 11.192-26.427 13.06-32.466 16.817-44.612 23.441-55.887 25.237-68.616 26.81-79.764 23.441-91.075 14.23-98.017 5.417-104.659-7.076-105.417-16.675-99.981-21.651-97.163-25.785-93.149-30.259-89.64-34.781-86.092-39.455-83.269-44.982-81.581-50.852-79.787-56.996-79.093-62.862-77.281-67.72-75.78-72.371-73.316-76.33-70.118-84.201-63.761-89.353-54.484-88.751-44.206-88.181-34.464-82.511-25.649-73.21-22.252-67.719-20.247-61.841-19.544-56.381-17.445-51.095-15.412-46.538-12.195-42.056-8.79-37.728-5.503-33.431-1.99-28.363 .112-22.418 2.577-15.945 2.421-9.863 .542-6.909-.371-4-1.531-1.131-2.683 .515-3.344 1.255-.892 0 0" fill="#482825"/>
<path transform="matrix(1,0,0,-1,710.942,434.4145)" d="M0 0C-5.599-1.452-9.816-6.316-12.545-11.201-15.881-17.174-17.249-24.111-18.067-30.833-19.556-43.077-17.471-56.873-6.369-64.132 3.978-70.897 16.574-65.963 22.658-55.989 26.04-50.445 27.197-43.737 27.147-37.322 27.096-30.716 26.171-23.748 24.088-17.464 22.397-12.368 19.508-6.991 15.556-3.247 11.4 .69 5.339 2.022-.154 .558-2.241 .003-1.725-3.008 .343-3.108 4.645-3.317 8.502-3.656 11.75-6.75 14.278-9.158 16.239-12.479 17.698-15.619 20.07-20.725 21.049-26.56 21.567-32.127 22.092-37.755 22.011-43.536 20.215-48.947 17.274-57.808 7.901-65.552-1.64-61.339-11.971-56.778-14.478-44.693-13.826-34.508-13.414-28.07-12.276-21.295-9.592-15.388-7.091-9.882-3.374-5.947 1.253-2.152 2.293-1.298 1.161 .301 0 0" fill="#482825"/>
<path transform="matrix(1,0,0,-1,797.0233,413.22639)" d="M0 0C-7.11 10.169-22.751 7.4-31.314 .838-36.711-3.299-40.803-8.911-44.011-14.858-47.58-21.472-50.316-28.603-51.161-36.107-52.616-49.038-46.734-67.342-30.681-65.699-23.889-65.004-17.653-61.523-12.332-57.413-7.152-53.412-2.72-48.478 .69-42.887 8.546-30.005 11.81-11.078 .259 .73-1.523 2.552-4.232-.191-2.526-2.055 6.2-11.596 4.282-25.64-.995-36.385-5.891-46.353-14.547-55.492-25.041-59.571-30.444-61.671-36.673-62.121-41.009-57.65-45.278-53.247-46.767-46.5-46.78-40.556-46.793-34.028-44.974-27.594-42.284-21.685-39.806-16.243-36.747-10.911-32.649-6.521-28.667-2.255-23.786 .998-17.993 2.089-12.026 3.213-6.753 1.474-1.797-1.797-.728-2.502 .753-1.077 0 0" fill="#482825"/>
<path transform="matrix(1,0,0,-1,869.3519,512.34909)" d="M0 0C-.098-6.022-.866-11.454-3.711-16.839-6.378-21.884-10.171-26.276-14.224-30.257-21.244-37.153-30.826-43.172-41.039-40.357-45.567-39.109-49.461-36.066-51.035-31.539-52.547-27.193-52.095-22.278-50.403-18.048-46.525-8.352-35.93-1.624-26.803 2.479-22.202 4.547-17.075 5.708-12.012 5.621-6.623 5.528-3.443 2.545-.033-1.32 1.481-3.036 3.689-.85 2.899 .942 .775 5.76-3.804 9.625-9.051 10.516-13.909 11.34-19.439 10.616-24.094 9.159-30.308 7.216-36.206 3.839-41.469 .045-46.495-3.578-51.139-7.989-54.017-13.551-59.223-23.613-57.723-37.424-46.912-43.097-35.926-48.86-23.606-44.326-14.722-36.911-9.205-32.307-4.071-26.626-.482-20.381 3.038-14.255 5.393-6.118 2.399 .65 1.856 1.878 .019 1.18 0 0" fill="#482825"/>
<path transform="matrix(1,0,0,-1,834.5188,433.9148)" d="M0 0C4.618-1.494 8.641-3.747 11.508-7.772 14.301-11.694 15.674-16.299 15.8-21.087 15.972-27.621 14.117-34.052 11.499-39.987 8.954-45.756 5.736-51.337 1.352-55.91-5.896-63.47-21.268-71.199-28.451-59.431-31.319-54.731-32.224-48.957-32.385-43.538-32.567-37.373-31.584-31.234-29.528-25.421-25.025-12.69-14.419 .271 .349-.703 2.904-.872 2.833 2.989 .349 3.236-14.401 4.705-26.543-7.27-32.191-19.786-37.628-31.833-39.36-47.408-33.576-59.676-30.811-65.542-25.715-69.664-19.123-70.11-12.163-70.582-5.19-67.345 .189-63.17 5.863-58.766 10.191-52.856 13.466-46.507 16.848-39.95 19.481-32.874 20.204-25.494 20.854-18.855 19.514-12.077 15.79-6.48 12.38-1.353 6.775 2.996 .349 2.579-1.121 2.484-1.443 .467 0 0" fill="#482825"/>
<path transform="matrix(1,0,0,-1,255.759,342.92677)" d="M0 0C-5.695-3.268-10.342-7.654-11.576-14.256-12.867-21.159-10.346-28.303-11.332-35.256-12.085-40.574-14.861-45.538-14.964-50.907-15.125-59.173-8.355-66.646-.312-68.559 7.732-70.471 16.439-67.446 22.603-61.935 26.725-58.25 29.94-53.482 34.674-50.623 39.697-47.589 45.889-47.045 51.026-44.206 56.548-41.154 60.497-35.411 61.371-29.163 62.245-22.915 60.023-16.309 55.551-11.859 50.853-7.185 44.195-5.078 37.681-3.857 31.168-2.635 24.471-2.123 18.223 .088 15.109 1.19 12.102 2.714 8.831 3.175 5.561 3.637 2.575 1.855 0 0" fill="#f1c885"/>
<path transform="matrix(1,0,0,-1,199.8645,363.09156)" d="M0 0C-.321-3.602 .83-7.231 2.733-10.307 4.635-13.382 7.255-15.953 10.041-18.259 14.01-21.543 18.551-24.423 23.65-25.159 28.748-25.896 34.478-24.049 37.156-19.649 39.852-15.22 38.827-9.241 35.795-5.035 32.762-.83 28.083 1.882 23.32 3.93 19.646 5.509 15.747 6.785 11.749 6.727 7.751 6.67 3.002 6.625 0 0" fill="#f1c885"/>
<path transform="matrix(1,0,0,-1,216.4526,308.0094)" d="M0 0C-6.694-1.616-9.73-8.555-9.78-13.92-9.83-19.285-7.651-24.445-4.847-29.02-2.721-32.489-.192-35.749 2.934-38.352 6.061-40.955 9.817-42.883 13.839-43.491 16.498-43.893 19.355-43.677 21.642-42.264 25.284-40.012 26.619-35.344 26.822-31.067 27.219-22.702 24.321-14.225 18.887-7.853 16.559-5.124 13.753-2.752 10.492-1.257 7.231 .237 3.493 .814 0 0" fill="#f1c885"/>
<path transform="matrix(1,0,0,-1,297.4064,299.47596)" d="M0 0C3.426-1.158 6.283-3.675 8.33-6.656 10.378-9.637 11.674-13.071 12.661-16.551 14.066-21.506 14.871-26.823 13.489-31.786 12.108-36.749 8.108-41.247 3.001-41.924-2.139-42.605-7.197-39.257-9.823-34.787-12.449-30.316-13.045-24.941-12.998-19.756-12.963-15.758-12.558-11.674-10.893-8.039-9.229-4.404-7.273-.076 0 0" fill="#f1c885"/>
<path transform="matrix(1,0,0,-1,240.3116,292.44886)" d="M0 0C4.177 5.474 11.751 5.456 16.681 3.338 21.612 1.221 25.454-2.854 28.511-7.264 30.828-10.608 32.792-14.237 33.914-18.148 35.035-22.059 35.285-26.272 34.22-30.199 33.516-32.794 32.167-35.322 29.951-36.845 26.422-39.27 21.612-38.61 17.616-37.071 9.801-34.061 3.212-27.992-.428-20.45-1.987-17.219-3.026-13.695-3.08-10.108-3.133-6.522-2.153-2.869 0 0" fill="#f1c885"/>
<path transform="matrix(1,0,0,-1,255.3688,341.5119)" d="M0 0C-7.201-2.615-12.589-8.891-13.628-16.541-14.25-21.126-13.54-25.714-13.297-30.298-13.05-34.96-14.08-39.024-15.457-43.435-16.732-47.522-17.686-51.656-16.913-55.94-16.259-59.559-14.432-62.895-12.005-65.627-6.682-71.619 1.286-73.874 9.069-72.589 17.529-71.192 23.741-65.93 29.382-59.85 32.238-56.773 35.233-53.806 39.282-52.382 43.341-50.955 47.653-50.406 51.576-48.568 58.627-45.263 63.612-38.279 64.584-30.578 65.618-22.382 62.017-13.998 55.41-9.06 47.452-3.113 37.229-2.594 27.808-.95 25.178-.49 22.554 .05 20.007 .858 17.625 1.613 15.345 2.658 12.952 3.377 7.703 4.954 3.649 3.428-.585 .253-2.523-1.202-.743-4.492 1.365-3.083 2.925-2.039 4.558-1.034 6.419-.632 8.455-.191 10.415-.865 12.328-1.538 16.174-2.893 19.801-4.543 23.8-5.458 31.379-7.191 39.377-7.446 46.608-10.533 53.099-13.304 58.186-18.643 59.014-25.864 59.758-32.356 56.588-39.089 51.092-42.648 44.92-46.645 37.246-47.374 31.409-52.055 25.717-56.62 21.896-62.822 15.067-65.957 8.66-68.899 1.155-68.987-4.8-64.983-10.464-61.175-12.936-54.792-11.308-48.217-10.254-43.966-8.552-39.968-8.237-35.552-7.903-30.875-8.96-26.285-9.194-21.637-9.401-17.544-8.819-13.719-6.548-10.251-4.494-7.114-1.387-4.862 1.428-2.453 2.523-1.516 1.36 .494 0 0" fill="#482825"/>
<path transform="matrix(1,0,0,-1,198.6227,362.74946)" d="M0 0C-1.693-4.051 .234-9.156 2.538-12.595 5.057-16.353 8.474-19.423 12.075-22.119 18.565-26.979 26.91-29.939 34.688-26.309 42.55-22.64 44.176-13.233 40.443-5.972 36.576 1.549 27.453 6.1 19.603 8.158 12.233 10.09 1.374 9.305-.558 .154-.906-1.491 1.295-3.235 2.562-1.663 4.274 .463 5.604 2.57 8.374 3.328 10.619 3.943 13.311 3.909 15.592 3.589 19.195 3.085 22.714 1.653 25.951 .037 28.957-1.464 31.833-3.294 34.075-5.828 37.952-10.21 39.225-17.901 33.642-21.491 28.032-25.098 21.261-22.804 16.17-19.415 12.867-17.216 9.664-14.5 7.219-11.359 5.971-9.755 4.825-7.949 4.102-6.045 3.357-4.084 3.036-2.013 2.483 0 2.115 1.338 .459 1.097 0 0" fill="#482825"/>
<path transform="matrix(1,0,0,-1,216.4526,306.69648)" d="M0 0C-7.96 .224-12.215-9.537-12.023-16.28-11.883-21.238-9.98-26.026-7.545-30.285-5.104-34.556-2.041-38.647 1.825-41.729 8.619-47.147 20.696-50.748 26.457-41.953 31.411-34.392 29.231-23.02 25.636-15.4 21.073-5.726 10.847 3.23-.524 .586-3.021 .006-1.938-3.654 .524-3.212 8.991-1.693 16.016-7.949 20.06-14.734 23.766-20.953 25.871-29.316 23.861-36.45 22.845-40.055 20.409-42.517 16.536-42.661 12.651-42.806 8.826-41.118 5.718-38.907-.343-34.596-5.251-26.999-6.97-19.795-7.787-16.367-7.781-12.762-6.358-9.494-4.899-6.145-2.349-4.296 .663-2.447 1.783-1.759 1.305-.037 0 0" fill="#482825"/>
<path transform="matrix(1,0,0,-1,296.4961,300.3863)" d="M0 0C2.478-2.009 5.07-3.701 6.936-6.355 9.046-9.355 10.378-12.736 11.364-16.249 13.174-22.693 14.095-30.714 8.889-35.888 4.033-40.714-2.933-38.438-6.343-33.096-9.959-27.43-10.189-18.942-8.903-12.515-8.354-9.768-7.305-6.824-5.64-4.526-3.843-2.047-1.381-1.648 1.407-.89 3.115-.425 3.255 2.325 1.407 2.711-2.147 3.452-5.942 2.357-8.6-.118-10.717-2.089-12.076-5.061-13.073-7.726-14.628-11.884-14.853-16.579-14.72-20.974-14.577-25.663-13.784-30.419-11.509-34.577-7.642-41.646 1.164-45.986 8.71-41.895 16.549-37.646 18.25-28.156 16.934-20.079 16.106-14.994 14.451-9.538 11.598-5.203 9.249-1.635 5.443 2.123 .91 2.198-.128 2.215-.89 .722 0 0" fill="#482825"/>
<path transform="matrix(1,0,0,-1,240.9742,293.58296)" d="M0 0C2.646 1.831 5.128 3.423 8.438 3.619 11.447 3.797 14.281 2.997 16.875 1.502 23.414-2.268 28.599-9.825 30.814-16.941 32.881-23.582 32.502-35.424 22.974-34.977 15.987-34.65 9.139-29.555 4.838-24.364-.725-17.649-4.27-7.718 1.038 .14 2.484 2.279-.876 4.106-2.364 2.128-8.479-6.002-5.733-17.516-.275-25.216 4.755-32.311 12.847-38.44 21.682-39.495 26.275-40.044 30.728-38.585 33.474-34.73 36.343-30.703 36.939-25.314 36.321-20.528 35.096-11.056 28.836-1.259 21.063 4.239 14.649 8.777 1.735 10.412-1.929 1.483-2.36 .433-.897-.621 0 0" fill="#482825"/>
<path transform="matrix(1,0,0,-1,307.6054,446.48127)" d="M0 0C-5.899 1.708-12.127 2.641-18.577 2.641-50.39 2.641-76.984-19.636-83.655-49.437-49.625-47.958-18.791-27.632 0 0" fill="#ccebef"/>
<path transform="matrix(1,0,0,-1,329.3519,457.43159)" d="M0 0C-6.436 4.891-13.783 8.645-21.747 10.95-40.537-16.682-71.372-37.007-105.401-38.487-106.455-43.196-107.03-48.087-107.03-53.115-107.03-57.148-106.652-61.09-105.966-64.926-63.322-61.334-20.85-38.166 0 0" fill="#92d6df"/>
<path transform="matrix(1,0,0,-1,346.8168,477.22779)" d="M0 0C-4.457 7.705-10.411 14.437-17.465 19.796-38.315-18.37-80.787-41.538-123.431-45.13-121.327-56.897-116.137-67.594-108.733-76.356-63.386-66.915-22.283-40.536 0 0" fill="#75ccd3"/>
<path transform="matrix(1,0,0,-1,259.0536,570.1211)" d="M0 0C9.013-4.548 19.187-7.131 29.975-7.131 66.816-7.131 96.681 22.734 96.681 59.575 96.681 59.896 96.67 60.214 96.665 60.534 73.96 29.765 37.396 7.901 0 0" fill="#ccebef"/>
<path transform="matrix(1,0,0,-1,355.7184,509.58686)" d="M0 0C-.167 11.779-3.382 22.817-8.902 32.359-31.185-8.177-72.288-34.556-117.634-43.997-111.86-50.831-104.726-56.467-96.665-60.534-59.269-52.633-22.705-30.77 0 0" fill="#92d6df"/>
<path transform="matrix(1,0,0,-1,289.0284,446.49629)" d="M0 0C-35.317 0-64.05-28.733-64.05-64.049-64.05-99.368-35.317-128.101 0-128.101 35.317-128.101 64.05-99.368 64.05-64.049 64.05-28.733 35.317 0 0 0M0-133.412C-38.246-133.412-69.362-102.296-69.362-64.049-69.362-25.804-38.246 5.311 0 5.311 38.246 5.311 69.362-25.804 69.362-64.049 69.362-102.296 38.246-133.412 0-133.412" fill="#482825"/>
<path transform="matrix(1,0,0,-1,328.2602,456.46516)" d="M0 0C-3.133-2.417-5.2-6.293-7.512-9.472-9.882-12.73-12.414-15.864-15.09-18.874-20.563-25.03-26.611-30.693-33.076-35.795-46.001-45.995-60.927-53.768-76.691-58.509-81.168-59.856-85.717-60.963-90.314-61.816-94.898-62.667-99.573-63.043-104.138-63.936-106.777-64.452-106.011-68.333-103.528-68.446-95.148-68.827-86.201-66.645-78.177-64.426-70.017-62.17-62.071-59.112-54.469-55.389-39.188-47.905-25.182-37.546-13.81-24.87-10.7-21.404-7.778-17.764-5.045-13.994-2.421-10.372 1.201-5.95 1.849-1.422 1.981-.503 .986 .761 0 0" fill="#482825"/>
<path transform="matrix(1,0,0,-1,239.6243,553.8155)" d="M0 0C4.289-.307 8.809 .869 12.956 1.873 17.286 2.921 21.565 4.169 25.774 5.629 34.164 8.539 42.275 12.3 49.996 16.68 65.346 25.387 79.15 36.498 90.706 49.855 97.222 57.386 103.236 65.592 107.954 74.378 109.41 77.089 105.395 79.454 103.822 76.793 95.008 61.895 84.357 48.554 71.153 37.29 57.978 26.053 43.205 17.198 27.097 10.855 22.535 9.059 17.884 7.473 13.173 6.116 8.622 4.806 3.767 4.039-.587 2.165-1.743 1.667-1.02 .073 0 0" fill="#482825"/>
</g>
<text fill="#ffffff" xml:space="preserve" transform="matrix(1 0 -0 1 0 1028.35)" font-size="128.0222" font-family="BodoniBT"><tspan y="-334.7549" x="360.2085 437.14985 472.22795 535.3429 598.5859 654.6596">Clube </tspan><tspan y="-211.08547" x="312.71226 396.95088 453.0246 516.1395 558.25888 614.4606 677.9596">Dourado</tspan></text>
</g>
</svg>
